<svg xmlns="http://www.w3.org/2000/svg" width="39" height="32"><path d="M36.54 4.81c1.34 0 2.44 1.07 2.44 2.38v21.5c0 1.31-1.1 2.39-2.44 2.39H2.48C1.15 31.08.05 30 .05 28.69V7.19c0-1.31 1.1-2.38 2.43-2.38H11c.61-2.39 1.22-4.78 3.65-4.78h9.73c2.43 0 3.04 2.39 3.65 4.78zM19.51 28.54c5.97 0 10.8-4.74 10.8-10.6 0-5.85-4.83-10.6-10.8-10.6-5.96 0-10.79 4.75-10.79 10.6 0 5.86 4.83 10.6 10.79 10.6 0 0-5.96 0 0 0zm-7.9-10.6c0-4.29 3.54-7.76 7.9-7.76 4.37 0 7.91 3.47 7.91 7.76 0 4.29-3.54 7.76-7.91 7.76-4.36 0-7.9-3.47-7.9-7.76 0 0 0 4.29 0 0zm25.37-7.95l-4.99-.03v2.07l4.99-.03z" fill="#fff"/></svg>