<svg id="SvgjsSvg1000" xmlns="http://www.w3.org/2000/svg" version="1.1" xmlns:xlink="http://www.w3.org/1999/xlink" xmlns:svgjs="http://svgjs.com/svgjs" width="40" height="36" viewBox="0 0 40 36"><title>Icon</title><desc>Created with Avocode.</desc><defs id="SvgjsDefs1001"></defs><path id="SvgjsPath1007" d="M493.034 1395.04L491.978 1401L518.44 1401L517.374 1406.01L490.891 1406.01L489.62300000000005 1411.93L516.3660000000001 1411.97L514.5970000000001 1419.92L503.9310000000001 1423.46L494.6860000000001 1419.92L495.1450000000001 1416.97L488.5110000000001 1416.97L487.2720000000001 1424.51L502.5600000000001 1430.36L520.1860000000001 1424.51L526.1330000000002 1395.04Z " fill="#ffffff" fill-opacity="1" transform="matrix(1,0,0,1,-487,-1395)"></path><path id="SvgjsPath1008" d="M493.034 1395.04L491.978 1401L518.44 1401L517.374 1406.01L490.891 1406.01L489.62300000000005 1411.93L516.3660000000001 1411.97L514.5970000000001 1419.92L503.9310000000001 1423.46L494.6860000000001 1419.92L495.1450000000001 1416.97L488.5110000000001 1416.97L487.2720000000001 1424.51L502.5600000000001 1430.36L520.1860000000001 1424.51L526.1330000000002 1395.04Z " fill="#ffe600" fill-opacity="1" transform="matrix(1,0,0,1,-487,-1395)"></path></svg>