<svg id="SvgjsSvg1012" xmlns="http://www.w3.org/2000/svg" version="1.1" xmlns:xlink="http://www.w3.org/1999/xlink" xmlns:svgjs="http://svgjs.com/svgjs" width="39" height="40" viewBox="0 0 39 40"><title>Icon</title><desc>Created with Avocode.</desc><defs id="SvgjsDefs1013"></defs><path id="SvgjsPath1014" d="M826.328 1402.77L817.928 1394.37L820.328 1391.9699999999998L828.728 1400.37ZM815.53 1396.77L802.329 1397.97C802.329 1408.77 790.329 1424.3700000000001 790.329 1424.3700000000001L792.322 1426.3600000000001L802.583 1416.1000000000001C802.42 1415.69 802.329 1415.2400000000002 802.329 1414.7700000000002C802.329 1412.7800000000002 803.9409999999999 1411.1700000000003 805.929 1411.1700000000003C807.918 1411.1700000000003 809.53 1412.7800000000002 809.53 1414.7700000000002C809.53 1416.7600000000002 807.918 1418.3700000000001 805.929 1418.3700000000001C805.459 1418.3700000000001 805.011 1418.2800000000002 804.6 1418.1200000000001L794.336 1428.38L796.3290000000001 1430.3700000000001C796.3290000000001 1430.3700000000001 811.9300000000001 1418.3700000000001 822.7280000000001 1418.3700000000001L823.9280000000001 1405.17Z " fill="#ffffff" fill-opacity="1" transform="matrix(1,0,0,1,-790,-1391)"></path></svg>