<svg id="SvgjsSvg1015" xmlns="http://www.w3.org/2000/svg" version="1.1" xmlns:xlink="http://www.w3.org/1999/xlink" xmlns:svgjs="http://svgjs.com/svgjs" width="43" height="42" viewBox="0 0 43 42"><title>Icon</title><desc>Created with Avocode.</desc><defs id="SvgjsDefs1016"></defs><path id="SvgjsPath1017" d="M1430.04 1413.75L1430.04 1406.39L1423.8 1405.2800000000002C1423.57 1404.5700000000002 1423.28 1403.89 1422.94 1403.2300000000002L1426.38 1398.5000000000002L1420.98 1393.1800000000003L1416.17 1396.5500000000002C1415.5 1396.2200000000003 1414.8000000000002 1395.9300000000003 1414.0800000000002 1395.7000000000003L1413.1100000000001 1389.9700000000003L1405.47 1389.9700000000003L1404.5 1395.7000000000003C1403.77 1395.9300000000003 1403.07 1396.2200000000003 1402.4 1396.5500000000002L1397.6000000000001 1393.1800000000003L1392.2 1398.4900000000002L1395.63 1403.2300000000002C1395.3000000000002 1403.8800000000003 1395.0100000000002 1404.5700000000002 1394.7700000000002 1405.2800000000002L1388.9400000000003 1406.2400000000002L1388.9400000000003 1413.7500000000002L1394.7900000000002 1414.7100000000003C1395.0200000000002 1415.4100000000003 1395.3100000000002 1416.0900000000004 1395.65 1416.7400000000002L1392.2 1421.4900000000002L1397.6000000000001 1426.8100000000002L1402.43 1423.41C1403.0900000000001 1423.74 1403.78 1424.02 1404.49 1424.25L1405.47 1430.01L1413.1100000000001 1430.01L1414.0800000000002 1424.25C1414.7900000000002 1424.02 1415.4800000000002 1423.74 1416.14 1423.41L1420.98 1426.8000000000002L1426.38 1421.4900000000002L1422.93 1416.7400000000002C1423.27 1416.0900000000001 1423.55 1415.4100000000003 1423.79 1414.7100000000003ZM1409.29 1415C1406.48 1415 1404.2 1412.76 1404.2 1409.99C1404.2 1407.23 1406.48 1404.99 1409.29 1404.99C1412.1 1404.99 1414.3799999999999 1407.23 1414.3799999999999 1409.99C1414.3799999999999 1412.76 1412.1 1415 1409.29 1415C1406.48 1415 1409.29 1415 1409.29 1415Z " fill="#ffffff" fill-opacity="1" transform="matrix(1,0,0,1,-1388,-1389)"></path></svg>