<svg id="SvgjsSvg1009" xmlns="http://www.w3.org/2000/svg" version="1.1" xmlns:xlink="http://www.w3.org/1999/xlink" xmlns:svgjs="http://svgjs.com/svgjs" width="39" height="32" viewBox="0 0 39 32"><title>Icon</title><desc>Created with Avocode.</desc><defs id="SvgjsDefs1010"></defs><path id="SvgjsPath1011" d="M1127.54 1398.81C1128.8799999999999 1398.81 1129.98 1399.8799999999999 1129.98 1401.19L1129.98 1422.69C1129.98 1424 1128.88 1425.0800000000002 1127.54 1425.0800000000002L1093.48 1425.0800000000002C1092.15 1425.0800000000002 1091.05 1424.0000000000002 1091.05 1422.69L1091.05 1401.19C1091.05 1399.88 1092.1499999999999 1398.81 1093.48 1398.81L1102 1398.81C1102.61 1396.4199999999998 1103.22 1394.03 1105.65 1394.03L1115.38 1394.03C1117.8100000000002 1394.03 1118.42 1396.42 1119.0300000000002 1398.81ZM1110.51 1422.54C1116.48 1422.54 1121.31 1417.8 1121.31 1411.94C1121.31 1406.0900000000001 1116.48 1401.3400000000001 1110.51 1401.3400000000001C1104.55 1401.3400000000001 1099.72 1406.0900000000001 1099.72 1411.94C1099.72 1417.8 1104.55 1422.54 1110.51 1422.54C1110.51 1422.54 1104.55 1422.54 1110.51 1422.54ZM1102.61 1411.94C1102.61 1407.65 1106.1499999999999 1404.18 1110.51 1404.18C1114.8799999999999 1404.18 1118.42 1407.65 1118.42 1411.94C1118.42 1416.23 1114.88 1419.7 1110.51 1419.7C1106.15 1419.7 1102.61 1416.23 1102.61 1411.94C1102.61 1411.94 1102.61 1416.23 1102.61 1411.94ZM1127.98 1403.99L1122.99 1403.96L1122.99 1406.03L1127.98 1406Z " fill="#ffffff" fill-opacity="1" transform="matrix(1,0,0,1,-1091,-1394)"></path></svg>