<svg xmlns="http://www.w3.org/2000/svg" width="43" height="42" viewBox="0 0 43 42"><title>Icon</title><path d="M42.04 24.75v-7.36l-6.24-1.11c-.23-.71-.52-1.39-.86-2.05l3.44-4.73-5.4-5.32-4.81 3.37c-.67-.33-1.37-.62-2.09-.85L25.11.97h-7.64L16.5 6.7c-.73.23-1.43.52-2.1.85L9.6 4.18 4.2 9.49l3.43 4.74c-.33.65-.62 1.34-.86 2.05l-5.83.96v7.51l5.85.96c.23.7.52 1.38.86 2.03L4.2 32.49l5.4 5.32 4.83-3.4c.66.33 1.35.61 2.06.84l.98 5.76h7.64l.97-5.76c.71-.23 1.4-.51 2.06-.84l4.84 3.39 5.4-5.31-3.45-4.75c.34-.65.62-1.33.86-2.03zM21.29 26c-2.81 0-5.09-2.24-5.09-5.01 0-2.76 2.28-5 5.09-5s5.09 2.24 5.09 5c0 2.77-2.28 5.01-5.09 5.01z" fill="#fff"/></svg>