<svg xmlns="http://www.w3.org/2000/svg" width="20" height="19" viewBox="0 0 20 19"><title>Arrows</title><path d="M18.938 1.3l-.694-.7a.987.987 0 0 0-1.388 0L10 7.46 3.144.6a.986.986 0 0 0-1.387 0l-.694.7a.974.974 0 0 0 0 1.38L9.3 10.92a1 1 0 0 0 .7.29c.255 0 .508-.1.7-.29l8.238-8.24c.381-.38.381-1 0-1.38zm0 7.17l-.694-.69a.97.97 0 0 0-1.388 0L10 14.63 3.144 7.78a.968.968 0 0 0-1.387 0l-.694.69a.986.986 0 0 0 0 1.39L9.3 18.09c.192.2.447.29.7.29.255 0 .508-.09.7-.29l8.238-8.23a.988.988 0 0 0 0-1.39z" fill="#fff"/></svg>